<svg xmlns="http://www.w3.org/2000/svg" width="165" height="48" viewBox="0 0 165 48" fill="none"><g clip-path="url(#clip0_1692_4546)"><mask id="mask0_1692_4546" style="mask-type:luminance" maskUnits="userSpaceOnUse" x="0" y="0" width="48" height="48"><path d="M48 0H0V48H48V0Z" fill="white"></path></mask><g mask="url(#mask0_1692_4546)"><path d="M45.6562 0H2.34375C1.04933 0 0 1.04933 0 2.34375V45.6562C0 46.9505 1.04933 48 2.34375 48H45.6562C46.9505 48 48 46.9505 48 45.6562V2.34375C48 1.04933 46.9505 0 45.6562 0Z" fill="#059D66"></path><g opacity="0.465592"><path opacity="0.465592" fill-rule="evenodd" clip-rule="evenodd" d="M39.1053 11.4561H27.3178V15.3428L31.2738 19.2961V15.3417H35.2111V34.9471H32.4044L19.4875 22.0144V27.6108L30.7936 38.8339H39.1053V11.4561Z" fill="#5F6160"></path><path opacity="0.465592" fill-rule="evenodd" clip-rule="evenodd" d="M19.4874 31.0008V34.947H15.6236V15.3417H18.4046L31.2737 28.2743V22.4564L19.9874 11.4561H11.6793V38.8339H23.4341V34.9459L19.4874 31.0008Z" fill="#5F6160"></path></g><path fill-rule="evenodd" clip-rule="evenodd" d="M37.7313 10.0342H25.9439V13.921L29.8999 17.8743V13.9198H33.8371V33.5252H31.0305L18.1136 20.5925V26.1889L29.4196 37.412H37.7313V10.0342Z" fill="#FFFFFE"></path><path fill-rule="evenodd" clip-rule="evenodd" d="M18.1133 29.5789V33.5252H14.2495V13.9198H17.0305L29.8996 26.8525V21.0345L18.6133 10.0342H10.3052V37.412H22.06V33.524L18.1133 29.5789Z" fill="#FFFFFE"></path></g></g><path d="M73.8145 14.0938V34H70.3828L61.4551 19.7402V34H58.0234V14.0938H61.4551L70.4102 28.3809V14.0938H73.8145Z" fill="black"></path><path d="M76.8893 26.7676V26.4531C76.8893 25.3867 77.0443 24.3978 77.3542 23.4863C77.6641 22.5658 78.1107 21.7682 78.694 21.0938C79.2864 20.4102 80.0065 19.8815 80.8542 19.5078C81.7109 19.125 82.6771 18.9336 83.7526 18.9336C84.8372 18.9336 85.8034 19.125 86.651 19.5078C87.5078 19.8815 88.2324 20.4102 88.8249 21.0938C89.4173 21.7682 89.8685 22.5658 90.1784 23.4863C90.4883 24.3978 90.6432 25.3867 90.6432 26.4531V26.7676C90.6432 27.834 90.4883 28.8229 90.1784 29.7344C89.8685 30.6458 89.4173 31.4434 88.8249 32.127C88.2324 32.8014 87.5124 33.3301 86.6647 33.7129C85.817 34.0866 84.8555 34.2734 83.7799 34.2734C82.6953 34.2734 81.7246 34.0866 80.8678 33.7129C80.0202 33.3301 79.3001 32.8014 78.7077 32.127C78.1152 31.4434 77.6641 30.6458 77.3542 29.7344C77.0443 28.8229 76.8893 27.834 76.8893 26.7676ZM80.1842 26.4531V26.7676C80.1842 27.4329 80.2526 28.0618 80.3893 28.6543C80.526 29.2467 80.7402 29.7663 81.0319 30.2129C81.3236 30.6595 81.6973 31.0104 82.153 31.2656C82.6087 31.5208 83.151 31.6484 83.7799 31.6484C84.3906 31.6484 84.9193 31.5208 85.3659 31.2656C85.8216 31.0104 86.1953 30.6595 86.487 30.2129C86.7786 29.7663 86.9928 29.2467 87.1295 28.6543C87.2754 28.0618 87.3483 27.4329 87.3483 26.7676V26.4531C87.3483 25.7969 87.2754 25.1771 87.1295 24.5938C86.9928 24.0013 86.7741 23.4772 86.4733 23.0215C86.1816 22.5658 85.8079 22.2103 85.3522 21.9551C84.9056 21.6908 84.3724 21.5586 83.7526 21.5586C83.1328 21.5586 82.595 21.6908 82.1393 21.9551C81.6927 22.2103 81.3236 22.5658 81.0319 23.0215C80.7402 23.4772 80.526 24.0013 80.3893 24.5938C80.2526 25.1771 80.1842 25.7969 80.1842 26.4531Z" fill="black"></path><path d="M96.6165 22.3652V34H93.3216V19.207H96.4251L96.6165 22.3652ZM96.0286 26.0566L94.9622 26.043C94.9713 24.9948 95.1172 24.0332 95.3997 23.1582C95.6914 22.2832 96.0924 21.5312 96.6028 20.9023C97.1224 20.2734 97.7422 19.7904 98.4622 19.4531C99.1823 19.1068 99.9844 18.9336 100.868 18.9336C101.579 18.9336 102.222 19.0339 102.796 19.2344C103.38 19.4258 103.876 19.7402 104.286 20.1777C104.706 20.6152 105.025 21.1849 105.243 21.8867C105.462 22.5794 105.572 23.4316 105.572 24.4434V34H102.263V24.4297C102.263 23.7188 102.158 23.1582 101.949 22.748C101.748 22.3288 101.452 22.0326 101.06 21.8594C100.677 21.6771 100.199 21.5859 99.6243 21.5859C99.0592 21.5859 98.5534 21.7044 98.1068 21.9414C97.6601 22.1784 97.2819 22.502 96.972 22.9121C96.6712 23.3223 96.4388 23.7962 96.2747 24.334C96.1107 24.8717 96.0286 25.446 96.0286 26.0566Z" fill="black"></path><path d="M119.502 28.832C119.502 28.4492 119.443 28.1074 119.324 27.8066C119.215 27.4967 119.01 27.2188 118.709 26.9727C118.417 26.7174 118.003 26.4714 117.465 26.2344C116.936 25.9883 116.253 25.7331 115.414 25.4688C114.484 25.1771 113.618 24.849 112.816 24.4844C112.014 24.1198 111.308 23.696 110.697 23.2129C110.096 22.7298 109.626 22.1738 109.289 21.5449C108.952 20.9069 108.783 20.1686 108.783 19.3301C108.783 18.5098 108.956 17.7624 109.303 17.0879C109.658 16.4134 110.159 15.8346 110.807 15.3516C111.454 14.8594 112.215 14.4811 113.09 14.2168C113.974 13.9525 114.949 13.8203 116.016 13.8203C117.492 13.8203 118.768 14.0892 119.844 14.627C120.928 15.1647 121.767 15.8939 122.359 16.8145C122.952 17.735 123.248 18.7695 123.248 19.918H119.502C119.502 19.2982 119.37 18.7513 119.105 18.2773C118.85 17.8034 118.458 17.4297 117.93 17.1562C117.41 16.8828 116.754 16.7461 115.961 16.7461C115.195 16.7461 114.557 16.86 114.047 17.0879C113.546 17.3158 113.167 17.6257 112.912 18.0176C112.666 18.4095 112.543 18.847 112.543 19.3301C112.543 19.6947 112.63 20.0228 112.803 20.3145C112.976 20.597 113.236 20.8659 113.582 21.1211C113.928 21.3672 114.357 21.5996 114.867 21.8184C115.387 22.028 115.988 22.2376 116.672 22.4473C117.766 22.7754 118.723 23.14 119.543 23.541C120.372 23.9421 121.061 24.3978 121.607 24.9082C122.163 25.4186 122.578 25.9928 122.852 26.6309C123.134 27.2689 123.275 27.9935 123.275 28.8047C123.275 29.6615 123.107 30.4271 122.77 31.1016C122.432 31.776 121.949 32.3503 121.32 32.8242C120.691 33.2982 119.935 33.6582 119.051 33.9043C118.176 34.1504 117.196 34.2734 116.111 34.2734C115.145 34.2734 114.188 34.1458 113.24 33.8906C112.301 33.6263 111.449 33.2344 110.684 32.7148C109.918 32.1862 109.307 31.5208 108.852 30.7188C108.396 29.9076 108.168 28.9596 108.168 27.875H111.941C111.941 28.5039 112.042 29.0417 112.242 29.4883C112.452 29.9258 112.743 30.2858 113.117 30.5684C113.5 30.8418 113.947 31.0423 114.457 31.1699C114.967 31.2975 115.519 31.3613 116.111 31.3613C116.877 31.3613 117.506 31.2565 117.998 31.0469C118.499 30.8281 118.873 30.5273 119.119 30.1445C119.374 29.7617 119.502 29.3242 119.502 28.832Z" fill="black"></path><path d="M133.34 19.207V21.6133H125V19.207H133.34ZM127.406 15.584H130.701V29.9121C130.701 30.3678 130.765 30.7188 130.893 30.9648C131.029 31.2018 131.216 31.3613 131.453 31.4434C131.69 31.5254 131.968 31.5664 132.287 31.5664C132.515 31.5664 132.734 31.5527 132.943 31.5254C133.153 31.498 133.322 31.4707 133.449 31.4434L133.463 33.959C133.189 34.041 132.87 34.1139 132.506 34.1777C132.15 34.2415 131.74 34.2734 131.275 34.2734C130.519 34.2734 129.849 34.1413 129.266 33.877C128.682 33.6035 128.227 33.1615 127.898 32.5508C127.57 31.9401 127.406 31.1289 127.406 30.1172V15.584Z" fill="black"></path><path d="M134.87 26.7676V26.4531C134.87 25.3867 135.025 24.3978 135.335 23.4863C135.645 22.5658 136.091 21.7682 136.674 21.0938C137.267 20.4102 137.987 19.8815 138.835 19.5078C139.691 19.125 140.658 18.9336 141.733 18.9336C142.818 18.9336 143.784 19.125 144.632 19.5078C145.488 19.8815 146.213 20.4102 146.805 21.0938C147.398 21.7682 147.849 22.5658 148.159 23.4863C148.469 24.3978 148.624 25.3867 148.624 26.4531V26.7676C148.624 27.834 148.469 28.8229 148.159 29.7344C147.849 30.6458 147.398 31.4434 146.805 32.127C146.213 32.8014 145.493 33.3301 144.645 33.7129C143.798 34.0866 142.836 34.2734 141.76 34.2734C140.676 34.2734 139.705 34.0866 138.848 33.7129C138.001 33.3301 137.281 32.8014 136.688 32.127C136.096 31.4434 135.645 30.6458 135.335 29.7344C135.025 28.8229 134.87 27.834 134.87 26.7676ZM138.165 26.4531V26.7676C138.165 27.4329 138.233 28.0618 138.37 28.6543C138.507 29.2467 138.721 29.7663 139.012 30.2129C139.304 30.6595 139.678 31.0104 140.133 31.2656C140.589 31.5208 141.132 31.6484 141.76 31.6484C142.371 31.6484 142.9 31.5208 143.346 31.2656C143.802 31.0104 144.176 30.6595 144.467 30.2129C144.759 29.7663 144.973 29.2467 145.11 28.6543C145.256 28.0618 145.329 27.4329 145.329 26.7676V26.4531C145.329 25.7969 145.256 25.1771 145.11 24.5938C144.973 24.0013 144.755 23.4772 144.454 23.0215C144.162 22.5658 143.788 22.2103 143.333 21.9551C142.886 21.6908 142.353 21.5586 141.733 21.5586C141.113 21.5586 140.576 21.6908 140.12 21.9551C139.673 22.2103 139.304 22.5658 139.012 23.0215C138.721 23.4772 138.507 24.0013 138.37 24.5938C138.233 25.1771 138.165 25.7969 138.165 26.4531Z" fill="black"></path><path d="M154.638 22.0508V39.6875H151.343V19.207H154.378L154.638 22.0508ZM164.277 26.4668V26.7539C164.277 27.8294 164.149 28.8275 163.894 29.748C163.648 30.6595 163.279 31.457 162.786 32.1406C162.303 32.8151 161.706 33.3392 160.995 33.7129C160.284 34.0866 159.464 34.2734 158.534 34.2734C157.614 34.2734 156.807 34.1048 156.115 33.7676C155.431 33.4212 154.852 32.9336 154.378 32.3047C153.904 31.6758 153.521 30.9375 153.23 30.0898C152.947 29.2331 152.747 28.2943 152.628 27.2734V26.166C152.747 25.0814 152.947 24.097 153.23 23.2129C153.521 22.3288 153.904 21.5677 154.378 20.9297C154.852 20.2917 155.431 19.7995 156.115 19.4531C156.798 19.1068 157.596 18.9336 158.507 18.9336C159.437 18.9336 160.262 19.1159 160.982 19.4805C161.702 19.8359 162.308 20.3464 162.8 21.0117C163.292 21.668 163.661 22.4609 163.908 23.3906C164.154 24.3112 164.277 25.3366 164.277 26.4668ZM160.982 26.7539V26.4668C160.982 25.7832 160.918 25.1497 160.79 24.5664C160.663 23.974 160.462 23.4544 160.189 23.0078C159.915 22.5612 159.564 22.2148 159.136 21.9688C158.717 21.7135 158.211 21.5859 157.618 21.5859C157.035 21.5859 156.534 21.6862 156.115 21.8867C155.695 22.0781 155.344 22.347 155.062 22.6934C154.779 23.0397 154.561 23.4453 154.406 23.9102C154.251 24.3659 154.141 24.8626 154.077 25.4004V28.0527C154.187 28.709 154.374 29.3105 154.638 29.8574C154.902 30.4043 155.276 30.8418 155.759 31.1699C156.251 31.4889 156.88 31.6484 157.646 31.6484C158.238 31.6484 158.744 31.5208 159.163 31.2656C159.583 31.0104 159.924 30.6595 160.189 30.2129C160.462 29.7572 160.663 29.2331 160.79 28.6406C160.918 28.0482 160.982 27.4193 160.982 26.7539Z" fill="black"></path><path d="M119.502 28.832C119.502 28.4492 119.443 28.1074 119.324 27.8066C119.215 27.4967 119.01 27.2188 118.709 26.9727C118.417 26.7174 118.003 26.4714 117.465 26.2344C116.936 25.9883 116.253 25.7331 115.414 25.4688C114.484 25.1771 113.618 24.849 112.816 24.4844C112.014 24.1198 111.308 23.696 110.697 23.2129C110.096 22.7298 109.626 22.1738 109.289 21.5449C108.952 20.9069 108.783 20.1686 108.783 19.3301C108.783 18.5098 108.956 17.7624 109.303 17.0879C109.658 16.4134 110.16 15.8346 110.807 15.3516C111.454 14.8594 112.215 14.4811 113.09 14.2168C113.974 13.9525 114.949 13.8203 116.016 13.8203C117.492 13.8203 118.768 14.0892 119.844 14.627C120.928 15.1647 121.767 15.8939 122.359 16.8145C122.952 17.735 123.248 18.7695 123.248 19.918H119.502C119.502 19.2982 119.37 18.7513 119.105 18.2773C118.85 17.8034 118.458 17.4297 117.93 17.1562C117.41 16.8828 116.754 16.7461 115.961 16.7461C115.195 16.7461 114.557 16.86 114.047 17.0879C113.546 17.3158 113.167 17.6257 112.912 18.0176C112.666 18.4095 112.543 18.847 112.543 19.3301C112.543 19.6947 112.63 20.0228 112.803 20.3145C112.976 20.597 113.236 20.8659 113.582 21.1211C113.928 21.3672 114.357 21.5996 114.867 21.8184C115.387 22.028 115.988 22.2376 116.672 22.4473C117.766 22.7754 118.723 23.14 119.543 23.541C120.372 23.9421 121.061 24.3978 121.607 24.9082C122.163 25.4186 122.578 25.9928 122.852 26.6309C123.134 27.2689 123.275 27.9935 123.275 28.8047C123.275 29.6615 123.107 30.4271 122.77 31.1016C122.432 31.776 121.949 32.3503 121.32 32.8242C120.691 33.2982 119.935 33.6582 119.051 33.9043C118.176 34.1504 117.196 34.2734 116.111 34.2734C115.145 34.2734 114.188 34.1458 113.24 33.8906C112.301 33.6263 111.449 33.2344 110.684 32.7148C109.918 32.1862 109.307 31.5208 108.852 30.7188C108.396 29.9076 108.168 28.9596 108.168 27.875H111.941C111.941 28.5039 112.042 29.0417 112.242 29.4883C112.452 29.9258 112.743 30.2858 113.117 30.5684C113.5 30.8418 113.947 31.0423 114.457 31.1699C114.967 31.2975 115.519 31.3613 116.111 31.3613C116.877 31.3613 117.506 31.2565 117.998 31.0469C118.499 30.8281 118.873 30.5273 119.119 30.1445C119.374 29.7617 119.502 29.3242 119.502 28.832Z" fill="#059D66"></path><defs><clipPath id="clip0_1692_4546"><rect width="48" height="48" fill="white"></rect></clipPath></defs></svg>